# xmcd
#
# Track frame offsets: 
#        150
#        9676
#        22042
#        35021
#        47309
#        57105
#        66195
#        76174
#        85502
#        95766
#        105029
#        116074
#        126634
#        138013
#        148984
#        159361
#        173127
#        184836
#        197451
#        211678
#        224141
#        239911
#        249303
#        262147
#        272191
#        285208
#
# Disc length: 3959 seconds
#
# Revision: 0
# Processed by: cddbd v1.5.2PL0 Copyright (c) Steve Scherf et al.
# Submitted via: ExactAudioCopy v0.99pb4
#
DISCID=780f751a
DTITLE=Tony Allen - Here comes The Nite Owl!
DYEAR=2009
DGENRE=R&B
TTITLE0=Check Yourself Baby (version 2)
TTITLE1=Nite Owl
TTITLE2=Especially
TTITLE3=I
TTITLE4=It Hurts To Be Hurt
TTITLE5=Don't You Know
TTITLE6=Why In The World
TTITLE7=Come Back
TTITLE8=Lovers Mountain
TTITLE9=If Love Was Money
TTITLE10=Dreamin' aka I'm Dreaming
TTITLE11=Be My Love, Be My Love
TTITLE12=Cute Thing
TTITLE13=Have Faith In Me
TTITLE14=If I Had Aladdin's Lamp
TTITLE15=Why In The World
TTITLE16=Home Wrecker
TTITLE17=Give Me A Chance
TTITLE18=Everybody's Somebody's Fool
TTITLE19=Don't You Know That I Love You
TTITLE20=You Won't Let Me Go
TTITLE21=Come-A Come-A Baby
TTITLE22=I'm Dreaming
TTITLE23=I Found An Angel
TTITLE24=It Hurts Me So
TTITLE25=Check Yourself
EXTD=
EXTT0=
EXTT1=
EXTT2=
EXTT3=
EXTT4=
EXTT5=
EXTT6=
EXTT7=
EXTT8=
EXTT9=
EXTT10=
EXTT11=
EXTT12=
EXTT13=
EXTT14=
EXTT15=
EXTT16=
EXTT17=
EXTT18=
EXTT19=
EXTT20=
EXTT21=
EXTT22=
EXTT23=
EXTT24=
EXTT25=
PLAYORDER=
